<svg width="16" height="17" viewBox="0 0 16 17" fill="none" xmlns="http://www.w3.org/2000/svg">
<path fill-rule="evenodd" clip-rule="evenodd" d="M6.66671 12.5C3.72119 12.5 1.33337 10.1122 1.33337 7.16667C1.33337 4.22115 3.72119 1.83333 6.66671 1.83333C9.61223 1.83333 12 4.22115 12 7.16667C12 8.39914 11.582 9.53397 10.8799 10.4371L14.4714 14.0286L13.5286 14.9714L9.93714 11.3799C9.03401 12.0819 7.89918 12.5 6.66671 12.5ZM10.6667 7.16667C10.6667 9.37581 8.87585 11.1667 6.66671 11.1667C4.45757 11.1667 2.66671 9.37581 2.66671 7.16667C2.66671 4.95753 4.45757 3.16667 6.66671 3.16667C8.87585 3.16667 10.6667 4.95753 10.6667 7.16667Z" fill="#525252"/>
</svg>
